<svg width="1500" height="780" viewBox="0 0 1500 780" fill="none" xmlns="http://www.w3.org/2000/svg">
  <defs>
    <linearGradient id="bg" x1="0" y1="0" x2="0" y2="780" gradientUnits="userSpaceOnUse">
      <stop stop-color="#111827"/>
      <stop offset="1" stop-color="#0B1220"/>
    </linearGradient>
  </defs>

  <rect width="1500" height="780" fill="#0A0F1A"/>
  <rect x="24" y="24" width="1452" height="732" rx="14" fill="url(#bg)" stroke="#263042"/>

  <circle cx="54" cy="52" r="7" fill="#FF5F57"/>
  <circle cx="78" cy="52" r="7" fill="#FEBC2E"/>
  <circle cx="102" cy="52" r="7" fill="#28C840"/>
  <text x="126" y="57" fill="#9CA3AF" font-family="ui-monospace, SFMono-Regular, Menlo, Monaco, Consolas, Liberation Mono, monospace" font-size="20">gx status</text>

  <g font-family="ui-monospace, SFMono-Regular, Menlo, Monaco, Consolas, Liberation Mono, monospace" font-size="22" fill="#E5E7EB">
    <text x="48" y="106">[gitguardex] CLI: @imdeadpool/guardex/5.0.2 linux-x64 node-v22.22.0</text>
    <text x="48" y="140">[gitguardex] Global services:</text>
    <text x="72" y="174">- ● oh-my-codex: active</text>
    <text x="72" y="208">- ● @fission-ai/openspec: active</text>
    <text x="72" y="242">- ● @imdeadpool/codex-account-switcher: active</text>
    <text x="48" y="276">[gitguardex] Repo safety service: ● active.</text>
    <text x="48" y="310">[gitguardex] Repo: /path/to/your/repo</text>
    <text x="48" y="344">[gitguardex] Branch: agent/your-branch</text>
    <text x="48" y="378">gitguardex-tools logs:</text>

    <text x="72" y="412" fill="#93C5FD">├─ USAGE</text>
    <text x="72" y="446" fill="#93C5FD">│</text>
    <text x="100" y="446">$ gx &lt;command&gt; [options]</text>

    <text x="72" y="480" fill="#93C5FD">├─ COMMANDS</text>
    <text x="72" y="514" fill="#93C5FD">│</text>
    <text x="100" y="514">status                Show GitGuardex CLI + service health without modifying files</text>
    <text x="72" y="548" fill="#93C5FD">│</text>
    <text x="100" y="548">setup                 Install + repair guardrails in a git repo (supports --no-gitignore)</text>
    <text x="72" y="582" fill="#93C5FD">│</text>
    <text x="100" y="582">doctor                Repair safety setup drift, then verify repo safety</text>
    <text x="72" y="616" fill="#93C5FD">│</text>
    <text x="100" y="616">protect               Manage protected branches (list/add/remove/set/reset)</text>
    <text x="72" y="650" fill="#93C5FD">│</text>
    <text x="100" y="650">sync                  Check or sync agent branches with origin/&lt;base&gt;</text>
    <text x="72" y="684" fill="#93C5FD">└─</text>
    <text x="100" y="684" fill="#A7F3D0">Try 'gx doctor' for one-step repair + verification.</text>
  </g>
</svg>
